<?xml version="1.0" encoding="UTF-8" standalone="no"?>
<svg width="200px" height="60px" viewBox="0 0 588 60" version="1.1" xmlns="http://www.w3.org/2000/svg" xmlns:xlink="http://www.w3.org/1999/xlink" xmlns:sketch="http://www.bohemiancoding.com/sketch/ns">
    <!-- Generator: Sketch 3.3 (11970) - http://www.bohemiancoding.com/sketch -->
    <title>networkWCS</title>
    <desc>Created with Sketch.</desc>
    <defs>
        <path id="path-1" d="M0.802064516,59.8003478 L587.300903,59.8003478 L587.300903,0.256086957 L0.802064516,0.256086957 L0.802064516,59.8003478 Z"></path>
        <path id="path-3" d="M0.802064516,59.8003478 L587.300903,59.8003478 L587.300903,0.256086957 L0.802064516,0.256086957 L0.802064516,59.8003478 Z"></path>
        <path id="path-5" d="M0.802064516,59.8003478 L587.300903,59.8003478 L587.300903,0.256086957 L0.802064516,0.256086957 L0.802064516,59.8003478 Z"></path>
        <path id="path-7" d="M0.802064516,59.8003478 L587.300903,59.8003478 L587.300903,0.256086957 L0.802064516,0.256086957 L0.802064516,59.8003478 Z"></path>
    </defs>
    <g id="Page-1" stroke="none" stroke-width="1" fill="none" fill-rule="evenodd" sketch:type="MSPage">
        <g id="networkWCS" sketch:type="MSLayerGroup">
            <g id="Group-19">
                <mask id="mask-2" sketch:name="Clip 18" fill="white">
                    <use xlink:href="#path-1"></use>
                </mask>
                <g id="Clip-18"></g>
                <path d="M0.801251613,58.8865217 L5.94692903,31.6307826 C7.02809032,26.5144348 7.60796129,22.1366957 8.19054194,18.5056522 L18.7311871,18.5056522 L17.9833161,25.1908696 L18.1458968,25.1908696 C21.9692516,19.9882609 26.946929,17.5972174 32.3418968,17.5972174 C38.9833161,17.5972174 42.8012516,21.6433913 42.8012516,28.6628696 C42.8012516,30.4743478 42.4679613,33.4530435 42.1373806,35.4316522 L37.6528645,58.8865217 L25.6191871,58.8865217 L29.9357032,36.5045217 C30.1849935,35.1054783 30.3502839,33.5312174 30.3502839,32.045913 C30.3502839,29.1561739 29.3531226,27.1775652 26.2830581,27.1775652 C22.3838323,27.1775652 17.8180258,32.045913 16.1542839,40.9658261 L12.7536387,58.8865217 L0.801251613,58.8865217 Z" id="Fill-17" fill="#000203" sketch:type="MSShapeGroup" mask="url(#mask-2)"></path>
            </g>
            <g id="Group-22">
                <mask id="mask-4" sketch:name="Clip 21" fill="white">
                    <use xlink:href="#path-3"></use>
                </mask>
                <g id="Clip-21"></g>
                <path d="M71.0165806,26.2664348 C65.4536129,26.2664348 62.2155484,30.8894783 61.3863871,34.604087 C70.7672903,34.6903478 75.4143871,33.4530435 75.4143871,29.6494783 C75.4143871,27.6708696 73.7560645,26.2664348 71.0165806,26.2664348 L71.0165806,26.2664348 Z M81.5572258,56.5736522 C76.8234194,58.9727826 70.9325806,59.8003478 66.3694839,59.8003478 C54.8316774,59.8003478 48.854129,53.2768696 48.854129,42.6991304 C48.854129,30.3961739 57.8177419,17.5972174 72.5096129,17.5972174 C80.7280645,17.5972174 86.6189032,22.2229565 86.6189032,29.7357391 C86.6189032,39.9711304 76.5768387,43.6938261 60.2266452,43.2786957 C60.3079355,44.4324348 60.7225161,46.252 61.5543871,47.4084348 C63.1314194,49.467913 65.8709032,50.5515652 69.3555484,50.5515652 C73.7560645,50.5515652 77.49,49.5541739 80.7280645,47.9853043 L81.5572258,56.5736522 Z" id="Fill-20" fill="#000203" sketch:type="MSShapeGroup" mask="url(#mask-4)"></path>
            </g>
            <g id="Group-25">
                <mask id="mask-6" sketch:name="Clip 24" fill="white">
                    <use xlink:href="#path-5"></use>
                </mask>
                <g id="Clip-24"></g>
                <path d="M112.098271,7.51871304 L110.022658,18.4226261 L118.736981,18.4226261 L116.913368,27.5042783 L108.277626,27.5042783 L105.538142,41.2143652 C105.207561,42.7805391 104.874271,44.9289739 104.874271,46.330713 C104.874271,48.3174087 105.706142,49.7137565 108.361626,49.7137565 C109.358787,49.7137565 110.605239,49.7137565 111.59969,49.554713 L110.274658,58.8870609 C108.692206,59.4666261 105.706142,59.800887 103.215948,59.800887 C95.9946581,59.800887 92.5913032,56.1590609 92.5913032,51.042713 C92.5913032,48.8969739 92.8405935,46.6622783 93.5071742,43.5245391 L96.5772387,27.5042783 L91.4315613,27.5042783 L93.0898839,18.4226261 L98.3195613,18.4226261 L99.8125935,10.8235826 L112.098271,7.51871304 Z" id="Fill-23" fill="#000203" sketch:type="MSShapeGroup" mask="url(#mask-6)"></path>
            </g>
            <path d="M134.088387,18.5056522 L134.172387,35.5987826 C134.172387,40.2218261 134.004387,44.0173043 133.757806,48.4786087 L133.923097,48.4786087 C135.332129,44.1871304 137.158452,40.1409565 138.900774,36.0112174 L146.869935,18.5056522 L156.665419,18.5056522 L157.659871,35.4316522 C157.827871,40.2218261 157.990452,44.1062609 157.743871,48.4786087 L157.990452,48.4786087 C159.320903,44.0173043 160.732645,39.9711304 162.390968,35.2618261 L169.365677,18.5056522 L181.396645,18.5056522 L161.643097,58.8865217 L150.438581,58.8865217 L149.278839,44.8448696 C148.945548,40.548 148.945548,36.6689565 148.945548,31.8814783 L148.780258,31.8814783 C146.620645,37.5773913 145.626194,40.548 143.965161,44.2653043 L137.077161,58.8865217 L125.788645,58.8865217 L121.968,18.5056522 L134.088387,18.5056522 Z" id="Fill-26" fill="#000203" sketch:type="MSShapeGroup"></path>
            <path d="M192.598994,42.8684174 C192.598994,47.5696348 194.921187,50.7127652 199.156413,50.7127652 C205.545832,50.7127652 209.282477,41.1297217 209.282477,34.2746783 C209.282477,30.5600696 207.621445,26.5974609 202.890348,26.5974609 C195.999639,26.5974609 192.598994,36.5902435 192.598994,42.8684174 M221.649445,34.191113 C221.649445,48.9740696 211.439381,59.7998087 197.411381,59.7998087 C187.120026,59.7998087 180.232026,53.1092 180.232026,43.0328522 C180.232026,29.0747652 190.0248,17.5185043 204.467381,17.5185043 C215.338606,17.5185043 221.649445,24.9450261 221.649445,34.191113" id="Fill-28" fill="#000203" sketch:type="MSShapeGroup"></path>
            <path d="M225.211587,58.8865217 L229.777394,34.8547826 C230.939845,28.7437391 231.438426,21.9749565 231.855716,18.5056522 L242.228361,18.5056522 C241.979071,21.2282609 241.813781,23.9562609 241.48049,26.7624348 L241.729781,26.7624348 C244.637265,21.3953913 249.116361,17.5972174 254.679329,17.5972174 C255.42449,17.5972174 256.172361,17.5972174 256.920232,17.678087 L254.595329,29.2343478 C254.015458,29.1561739 253.351587,29.1561739 252.685006,29.1561739 C245.051845,29.1561739 241.48049,35.9330435 239.990168,43.8582609 L237.163974,58.8865217 L225.211587,58.8865217 Z" id="Fill-30" fill="#000203" sketch:type="MSShapeGroup"></path>
            <path d="M255.920361,58.8865217 L267.127587,0.258782609 L278.993265,0.258782609 L272.273265,35.3534783 L272.438555,35.3534783 C273.682297,33.781913 274.928748,32.2103478 276.08849,30.8086087 L286.461135,18.5056522 L301.234297,18.5056522 L283.970942,35.1836522 L295.259458,58.8865217 L281.900748,58.8865217 L274.763458,41.6289565 L270.278942,45.9204348 L267.788748,58.8865217 L255.920361,58.8865217 Z" id="Fill-32" fill="#000203" sketch:type="MSShapeGroup"></path>
            <path d="M390.455574,58.8865217 L368.377123,58.8865217 L355.511574,24.0398261 L355.094284,24.0398261 L342.234155,58.8865217 L319.903703,58.8865217 L299.816865,2.73608696 L320.068994,2.73608696 L332.021381,41.0493913 L332.354671,41.0493913 L346.13609,2.73608696 L364.144606,2.73608696 L378.253897,41.0493913 L378.584477,41.0493913 L390.371574,2.73608696 L410.539703,2.73608696 L390.455574,58.8865217 Z" id="Fill-34" fill="#D9222A" sketch:type="MSShapeGroup"></path>
            <path d="M454.190168,59.5469565 C421.15649,59.5469565 415.512232,55.7487826 415.512232,31.3881739 L415.512232,30.1508696 C415.512232,5.87382609 420.9072,2.07565217 454.190168,2.07565217 L456.848361,2.07565217 C486.229394,2.07565217 491.540361,5.54226087 491.540361,21.0665217 L491.540361,24.5331304 L471.702813,24.5331304 L471.702813,22.5464348 C471.702813,18.0905217 470.459071,16.7723478 456.265781,16.7723478 L454.772748,16.7723478 C436.512232,16.7723478 435.848361,18.0123478 435.848361,30.3153043 L435.848361,30.9730435 C435.848361,43.1142609 436.512232,44.5968696 454.772748,44.5968696 L456.265781,44.5968696 C471.534813,44.5968696 472.366684,43.4458261 472.366684,37.9116522 L472.366684,36.1756522 L492.038942,36.1756522 L492.038942,40.2218261 C492.038942,54.9266087 486.893265,59.5469565 456.848361,59.5469565 L454.190168,59.5469565 Z" id="Fill-36" fill="#D9222A" sketch:type="MSShapeGroup"></path>
            <path d="M538.346516,59.5469565 C505.226129,59.5469565 501.576194,56.2447826 501.576194,42.8689565 L501.576194,40.8013913 L521.579032,40.8013913 L521.579032,41.9524348 C521.579032,45.26 523.492065,46.252 537.018774,46.252 L539.340968,46.252 C554.363419,46.252 555.360581,45.26 555.360581,41.8742609 L555.360581,41.3809565 C555.360581,38.076087 554.114129,37.005913 538.097226,37.005913 C505.394129,37.005913 501.993484,33.612087 501.993484,19.5785217 L501.993484,18.5838261 C501.993484,6.03826087 507.139161,2.07565217 533.778,2.07565217 L537.270774,2.07565217 C569.220581,2.07565217 572.710645,5.45869565 572.710645,18.422087 L572.710645,19.7402609 L553.366258,19.7402609 L553.366258,19.0852174 C553.366258,16.2736522 552.537097,15.0336522 539.836839,15.0336522 L537.270774,15.0336522 C522.408194,15.0336522 521.245742,15.863913 521.245742,19.1633913 L521.245742,19.662087 C521.245742,22.8833913 522.077613,23.6246957 539.836839,23.6246957 C569.719161,23.6246957 574.536968,27.1775652 574.536968,40.8013913 L574.536968,41.9524348 C574.536968,55.1746087 569.635161,59.5469565 541.08329,59.5469565 L538.346516,59.5469565 Z" id="Fill-38" fill="#D9222A" sketch:type="MSShapeGroup"></path>
            <path d="M576.774077,2.47730435 L574.695755,2.47730435 L574.695755,1.7306087 L579.752013,1.7306087 L579.752013,2.47730435 L577.662852,2.47730435 L577.662852,8.52904348 L576.774077,8.52904348 L576.774077,2.47730435 Z" id="Fill-40" fill="#000203" sketch:type="MSShapeGroup"></path>
            <g id="Group-44">
                <mask id="mask-8" sketch:name="Clip 43" fill="white">
                    <use xlink:href="#path-7"></use>
                </mask>
                <g id="Clip-43"></g>
                <path d="M586.267432,5.54576522 C586.218658,4.5942 586.156335,3.44854783 586.156335,2.61289565 L586.134658,2.61289565 C585.890787,3.39463478 585.619819,4.25454783 585.27569,5.18993913 L584.067174,8.49211304 L583.403303,8.49211304 L582.284206,5.24924348 C581.961755,4.28689565 581.696206,3.41889565 581.503819,2.61289565 L581.484852,2.61289565 C581.465884,3.46202609 581.4144,4.58611304 581.352077,5.61585217 L581.170529,8.52985217 L580.327819,8.52985217 L580.807432,1.73141739 L581.931948,1.73141739 L583.09711,5.02011304 C583.378916,5.85846087 583.5984,6.59976522 583.785368,7.31141739 L583.804335,7.31141739 C583.985884,6.62402609 584.232465,5.87733043 584.533239,5.02011304 L585.752594,1.73141739 L586.87711,1.73141739 L587.302529,8.52985217 L586.430013,8.52985217 L586.267432,5.54576522 Z" id="Fill-42" fill="#000203" sketch:type="MSShapeGroup" mask="url(#mask-8)"></path>
            </g>
        </g>
    </g>
</svg>